<svg width="40" height="41" viewBox="0 0 40 41" fill="none" xmlns="http://www.w3.org/2000/svg">
<path fill-rule="evenodd" clip-rule="evenodd" d="M6.344 10.4343C7.84422 8.92146 9.87869 8.07159 12 8.07159C14.1213 8.07159 16.1558 8.92146 17.656 10.4343L20 12.7967L22.344 10.4343C23.082 9.66356 23.9647 9.04879 24.9408 8.62586C25.9168 8.20293 26.9665 7.98032 28.0288 7.97101C29.091 7.9617 30.1445 8.16588 31.1276 8.57163C32.1108 8.97739 33.004 9.57659 33.7552 10.3343C34.5063 11.092 35.1003 11.993 35.5026 12.9847C35.9048 13.9765 36.1072 15.0391 36.098 16.1106C36.0888 17.1821 35.8681 18.241 35.4488 19.2256C35.0295 20.2101 34.4201 21.1005 33.656 21.845L20 35.6221L6.344 21.845C4.84423 20.3317 4.00171 18.2794 4.00171 16.1396C4.00171 13.9998 4.84423 11.9476 6.344 10.4343Z" fill="#0093FF" stroke="black" stroke-width="2" stroke-linejoin="round"/>
</svg>
