<svg width="19" height="18" viewBox="0 0 19 18" fill="none" xmlns="http://www.w3.org/2000/svg">
<path d="M18.5 9C18.5 13.9706 14.4706 18 9.5 18C8.30286 18 7.1603 17.7663 6.11549 17.3419C5.91552 17.2607 5.81554 17.2201 5.73472 17.202C5.65566 17.1843 5.59715 17.1778 5.51613 17.1778C5.4333 17.1778 5.34309 17.1928 5.16265 17.2229L1.60476 17.8159C1.23218 17.878 1.04589 17.909 0.911184 17.8512C0.793283 17.8007 0.69933 17.7067 0.64876 17.5888C0.590982 17.4541 0.62203 17.2678 0.684127 16.8952L1.27711 13.3374C1.30718 13.1569 1.32222 13.0667 1.32221 12.9839C1.3222 12.9028 1.31572 12.8443 1.298 12.7653C1.27988 12.6845 1.23927 12.5845 1.15806 12.3845C0.733736 11.3397 0.5 10.1971 0.5 9C0.5 4.02944 4.52944 0 9.5 0C14.4706 0 18.5 4.02944 18.5 9Z" fill="#171602"/>
</svg>
