<svg width="40" height="41" viewBox="0 0 40 41" fill="none" xmlns="http://www.w3.org/2000/svg">
<path d="M4 4.03137C3.44772 4.03137 3 4.47909 3 5.03137C3 5.58366 3.44772 6.03137 4 6.03137V4.03137ZM7.82089 5.03137L8.78669 4.77206C8.66937 4.33512 8.27331 4.03137 7.82089 4.03137V5.03137ZM14.0298 28.1567L13.0641 28.416C13.1936 28.8985 13.6593 29.2113 14.1549 29.1488L14.0298 28.1567ZM33.1343 25.7478L33.2594 26.7399C33.6843 26.6864 34.0279 26.3682 34.1139 25.9487L33.1343 25.7478ZM36 11.7763L36.9796 11.9772C37.04 11.6829 36.9648 11.377 36.7749 11.1442C36.585 10.9113 36.3004 10.7763 36 10.7763V11.7763ZM9.63184 11.7763L8.66604 12.0356L9.63184 11.7763ZM4 6.03137H7.82089V4.03137H4V6.03137ZM14.1549 29.1488L33.2594 26.7399L33.0092 24.7556L13.9047 27.1645L14.1549 29.1488ZM34.1139 25.9487L36.9796 11.9772L35.0204 11.5753L32.1547 25.5469L34.1139 25.9487ZM6.8551 5.29068L8.66604 12.0356L10.5976 11.5169L8.78669 4.77206L6.8551 5.29068ZM8.66604 12.0356L13.0641 28.416L14.9956 27.8974L10.5976 11.5169L8.66604 12.0356ZM36 10.7763H9.63184V12.7763H36V10.7763ZM19 34.4646C19 35.3133 18.3203 35.9864 17.5 35.9864V37.9864C19.4412 37.9864 21 36.4015 21 34.4646H19ZM17.5 35.9864C16.6797 35.9864 16 35.3133 16 34.4646H14C14 36.4015 15.5588 37.9864 17.5 37.9864V35.9864ZM16 34.4646C16 33.616 16.6797 32.9428 17.5 32.9428V30.9428C15.5588 30.9428 14 32.5278 14 34.4646H16ZM17.5 32.9428C18.3203 32.9428 19 33.616 19 34.4646H21C21 32.5278 19.4412 30.9428 17.5 30.9428V32.9428ZM32.3333 34.4646C32.3333 35.3133 31.6536 35.9864 30.8333 35.9864V37.9864C32.7745 37.9864 34.3333 36.4015 34.3333 34.4646H32.3333ZM30.8333 35.9864C30.0131 35.9864 29.3333 35.3133 29.3333 34.4646H27.3333C27.3333 36.4015 28.8922 37.9864 30.8333 37.9864V35.9864ZM29.3333 34.4646C29.3333 33.616 30.0131 32.9428 30.8333 32.9428V30.9428C28.8922 30.9428 27.3333 32.5278 27.3333 34.4646H29.3333ZM30.8333 32.9428C31.6536 32.9428 32.3333 33.616 32.3333 34.4646H34.3333C34.3333 32.5278 32.7745 30.9428 30.8333 30.9428V32.9428Z" fill="black"/>
</svg>
