<svg width="48" height="50" viewBox="0 0 48 50" fill="none" xmlns="http://www.w3.org/2000/svg">
<rect x="0.5" y="0.5" width="46.8469" height="49" rx="7.5" fill="white" stroke="#AAAAAA"/>
<path fill-rule="evenodd" clip-rule="evenodd" d="M10.8554 15.4342C12.2911 13.9213 14.2379 13.0715 16.2679 13.0715C18.2978 13.0715 20.2447 13.9213 21.6803 15.4342L23.9234 17.7966L26.1664 15.4342C26.8726 14.6634 27.7174 14.0487 28.6514 13.6257C29.5854 13.2028 30.5899 12.9802 31.6064 12.9709C32.6229 12.9616 33.631 13.1658 34.5718 13.5715C35.5127 13.9773 36.3674 14.5765 37.0862 15.3342C37.805 16.0919 38.3734 16.9929 38.7584 17.9846C39.1433 18.9763 39.337 20.039 39.3282 21.1105C39.3193 22.182 39.1081 23.2409 38.7069 24.2254C38.3057 25.21 37.7225 26.1004 36.9913 26.8448L23.9234 40.6219L10.8554 26.8448C9.42026 25.3315 8.61401 23.2793 8.61401 21.1395C8.61401 18.9997 9.42026 16.9475 10.8554 15.4342Z" fill="#0093FF" stroke="#AAAAAA" stroke-width="2" stroke-linejoin="round"/>
</svg>
